<svg xmlns="http://www.w3.org/2000/svg" viewBox="0 0 64 64">
  <!-- Fond noir -->
  <rect width="64" height="64" rx="12" fill="#000000"/>
  
  <!-- Flammes orange -->
  <path d="M32 52 C20 52 14 42 14 35 C14 28 18 24 22 22 C20 28 24 30 26 28 C24 24 28 18 32 14 C32 20 36 22 38 20 C40 18 42 14 44 12 C46 20 44 26 46 30 C48 28 50 24 50 20 C52 26 50 35 50 35 C50 42 44 52 32 52Z" fill="#f97316"/>
  
  <!-- Flammes intérieures -->
  <path d="M32 48 C24 48 20 41 20 36 C20 32 22 29 25 27 C24 31 27 33 29 31 C28 28 30 24 32 21 C33 25 36 27 37 25 C39 28 38 33 40 35 C41 33 42 30 42 27 C44 31 43 36 44 38 C44 42 40 48 32 48Z" fill="#ef4444"/>
  
  <!-- Centre vert -->
  <ellipse cx="32" cy="40" rx="6" ry="4" fill="#00ff00"/>
  <ellipse cx="32" cy="40" rx="3" ry="2" fill="#aaffaa"/>
</svg>